<svg width="45" height="31" viewBox="0 0 45 31" fill="none" xmlns="http://www.w3.org/2000/svg">
<rect x="1.38978" y="0.643687" width="42.4833" height="29.6096" stroke="#444649" stroke-width="1.28737"/>
<path fill-rule="evenodd" clip-rule="evenodd" d="M10.6874 11.6387L7.20264 19.5771H11.3743L11.8915 18.3114H13.0737L13.5908 19.5771H18.1827V18.611L18.5919 19.5771H20.9672L21.3763 18.5906V19.5771H30.9262L32.0874 18.3442L33.1747 19.5771L38.0797 19.5873L34.584 15.63L38.0797 11.6387H33.2508L32.1204 12.8487L31.0673 11.6387H20.6783L19.7862 13.6876L18.8732 11.6387H14.7102V12.5718L14.2471 11.6387H10.6874ZM11.4946 12.7659H13.5281L15.8395 18.149V12.7659H18.0671L19.8524 16.6256L21.4978 12.7659H23.7143V18.4623H22.3656L22.3546 13.9987L20.3884 18.4623H19.1819L17.2047 13.9987V18.4623H14.4301L13.9041 17.1852H11.0624L10.5374 18.4612H9.05088L11.4946 12.7659ZM30.4322 12.7659H24.9482V18.4589H30.3473L32.0875 16.5722L33.7648 18.4589H35.5182L32.9697 15.6289L35.5182 12.7659H33.8409L32.1095 14.631L30.4322 12.7659ZM12.4838 13.7297L11.5476 16.0047H13.419L12.4838 13.7297ZM26.3022 14.9852V13.9453V13.9443H29.7241L31.2172 15.6073L29.6579 17.2794H26.3022V16.1442H29.294V14.9852H26.3022Z" fill="#71747A"/>
</svg>
