<svg width="45" height="31" viewBox="0 0 45 31" fill="none" xmlns="http://www.w3.org/2000/svg">
<rect x="1.61927" y="0.643687" width="42.4833" height="29.6096" stroke="#444649" stroke-width="1.28737"/>
<path d="M11.0481 12.2248C11.4185 12.1034 11.8147 12.0374 12.227 12.0374C14.0262 12.0374 15.5269 13.2912 15.8712 14.9566L18.4208 14.4467C17.8358 11.6161 15.2853 9.48535 12.227 9.48535C11.5268 9.48535 10.8528 9.59725 10.2236 9.80338L11.0481 12.2248Z" fill="#BFC0C4"/>
<path d="M8.01392 20.4283L9.54048 18.4572C8.85907 17.7679 8.42899 16.7617 8.42899 15.6401C8.42899 14.5193 8.85867 13.5131 9.53988 12.8244L8.01252 10.8535C6.85465 12.0245 6.125 13.735 6.125 15.6401C6.125 17.5462 6.85572 19.2573 8.01392 20.4283Z" fill="#8C8F94"/>
<path d="M15.872 16.3242C15.5265 17.9894 14.0267 19.2416 12.2291 19.2416C11.8167 19.2416 11.4197 19.1755 11.0493 19.0536L10.2236 21.4763C10.8538 21.6835 11.528 21.7955 12.2291 21.7955C15.2847 21.7955 17.8334 19.6662 18.4208 16.8367L15.872 16.3242Z" fill="#5A5D62"/>
<path fill-rule="evenodd" clip-rule="evenodd" d="M30.6871 10.8535V17.8585L31.9442 18.3623L31.3495 19.7439L30.1064 19.2443C29.8269 19.127 29.6377 18.9485 29.494 18.7468C29.356 18.5404 29.2537 18.2584 29.2537 17.8777V10.8535H30.6871ZM21.1533 16.0598C21.1845 14.0566 22.8905 12.4576 24.9605 12.4882C26.7175 12.5149 28.1732 13.7049 28.5556 15.2876L21.7603 18.0961C21.3655 17.5126 21.1412 16.8106 21.1533 16.0598ZM22.7081 16.3407C22.6987 16.2566 22.6922 16.1704 22.6946 16.0835C22.7141 14.9033 23.7185 13.9615 24.9381 13.9811C25.602 13.9896 26.1914 14.2836 26.5899 14.7386L22.7081 16.3407ZM26.4469 17.6411C26.0373 18.0264 25.4819 18.2611 24.8687 18.2527C24.4484 18.2459 24.0589 18.1242 23.7278 17.9214L22.9069 19.1863C23.4691 19.5299 24.132 19.7332 24.8467 19.7439C25.8869 19.7589 26.8351 19.3637 27.5245 18.7112L26.4469 17.6411ZM35.9188 13.981C35.6739 13.981 35.4386 14.0193 35.2187 14.0906L34.7296 12.6733C35.1029 12.5527 35.5027 12.4872 35.9188 12.4872C37.7344 12.4872 39.249 13.7344 39.5963 15.391L38.0821 15.6895C37.8781 14.7145 36.9871 13.981 35.9188 13.981ZM33.4327 18.8336L34.4558 17.7148C33.9989 17.3236 33.7111 16.7523 33.7111 16.1155C33.7111 15.4793 33.9989 14.9083 34.4554 14.5174L33.4316 13.3986C32.6553 14.0633 32.1663 15.0346 32.1663 16.1155C32.1663 17.1977 32.6557 18.1686 33.4327 18.8336ZM35.9189 18.2507C36.9862 18.2507 37.8771 17.5178 38.0823 16.5442L39.596 16.844C39.247 18.4989 37.7328 19.7443 35.9189 19.7443C35.5025 19.7443 35.1022 19.6786 34.7278 19.5575L35.2181 18.1406C35.4384 18.2118 35.6739 18.2507 35.9189 18.2507Z" fill="#71747A"/>
</svg>
