<svg width="45" height="32" viewBox="0 0 45 32" fill="none" xmlns="http://www.w3.org/2000/svg">
<rect x="1.38978" y="1.54017" width="42.4833" height="29.6096" stroke="#444649" stroke-width="1.28737"/>
<path fill-rule="evenodd" clip-rule="evenodd" d="M15.0058 9.125C13.7632 9.125 11.2747 9.125 11.2747 9.125C9.62614 9.20295 8.27855 9.86695 7.88945 11.2362C7.68656 11.9503 7.57489 12.7346 7.41628 13.4749C6.60968 17.2389 5.89458 21.1065 5.12305 24.7954H34.1706C36.4162 24.7954 37.9581 24.3208 38.3748 22.5385C38.5684 21.7106 38.7538 20.7728 38.939 19.8631C39.661 16.3164 40.3836 12.7699 41.123 9.125H15.0058Z" fill="#2D2E31"/>
<path fill-rule="evenodd" clip-rule="evenodd" d="M30.0209 18.4799C29.6176 18.8747 28.4855 18.9869 28.6013 18.0431C28.6975 17.2593 29.5509 17.0927 30.4759 17.2059C30.4071 17.6346 30.3283 18.1791 30.0209 18.4799ZM28.7469 15.4223C28.7084 15.6385 28.6492 15.8342 28.6013 16.0411C29.0631 15.9253 30.5012 15.5703 30.6398 16.1866C30.6858 16.3914 30.6064 16.609 30.5487 16.7691C29.2483 16.6459 28.1884 16.862 27.9097 17.7883C27.723 18.4088 27.9306 19.0193 28.3283 19.1898C29.0943 19.5179 30.026 19.142 30.3485 18.6256C30.315 18.8043 30.2833 18.9849 30.2939 19.208H30.9673C30.9745 18.563 31.0683 18.041 31.1675 17.4607C31.2521 16.9665 31.4112 16.4772 31.3859 16.0411C31.3281 15.0422 29.6732 15.3955 28.7469 15.4223ZM35.4992 18.7893C34.9723 18.8006 34.7104 18.4745 34.6983 17.9339C34.6774 16.9871 35.0927 15.9352 35.936 15.8409C36.3286 15.797 36.6129 15.8883 36.9006 15.9865C36.6365 17.05 36.7318 18.7629 35.4992 18.7893ZM37.2464 13.7843C37.1793 14.3724 37.0896 14.9379 36.9734 15.4768C35.0537 14.8692 33.8764 16.2816 33.8975 18.0249C33.9017 18.362 33.9597 18.6964 34.1706 18.9349C34.534 19.3459 35.5745 19.4442 36.0998 19.0987C36.2015 19.0319 36.3054 18.9102 36.3728 18.8258C36.4234 18.7622 36.5039 18.5958 36.5183 18.6437C36.4908 18.8284 36.4495 18.9995 36.4456 19.208H37.1554C37.2922 17.2456 37.7152 15.5695 38.029 13.7843H37.2464ZM17.208 18.4981C16.7893 18.9416 15.7599 18.9348 15.6792 18.1887C15.644 17.864 15.765 17.5236 15.8248 17.1877C15.8853 16.8477 15.9288 16.5215 15.9885 16.223C16.4009 15.7195 17.6128 15.6587 17.7358 16.4961C17.8425 17.2231 17.5547 18.1309 17.208 18.4981ZM17.8268 15.4223C17.1644 15.1735 16.3571 15.4705 16.0072 15.753C16.0084 15.7655 15.9988 15.7672 15.9885 15.7681C15.9945 15.7631 16.0009 15.758 16.0072 15.753L16.0067 15.7499C16.0127 15.6284 16.0554 15.5438 16.0614 15.4223H15.388C15.1073 17.2893 14.7746 19.104 14.4233 20.9005H15.2059C15.3192 20.2009 15.394 19.4628 15.5518 18.8075C15.7305 19.4967 16.8975 19.365 17.3899 19.0987C18.4061 18.5493 19.1898 15.9343 17.8268 15.4223ZM21.5396 16.7327H19.7014C19.7596 16.3101 20.1398 15.8456 20.7388 15.8227C21.3026 15.8011 21.7062 16.0297 21.5396 16.7327ZM20.7934 15.3495C20.2279 15.393 19.7499 15.5558 19.4102 15.9137C18.9936 16.3526 18.6561 17.3231 18.755 18.2069C18.896 19.4678 20.4659 19.4226 21.7217 19.1169C21.743 18.8957 21.7966 18.7065 21.8308 18.4981C21.3135 18.6917 20.4154 18.9619 19.8834 18.6256C19.4817 18.3716 19.4794 17.7284 19.6104 17.1695C20.4543 17.1426 21.3315 17.1478 22.1766 17.1695C22.2303 16.7733 22.3837 16.3414 22.2494 15.9501C22.0723 15.4335 21.4385 15.2998 20.7934 15.3495ZM13.9137 15.4223C13.8925 15.4253 13.894 15.4511 13.8955 15.4768C13.7231 16.7665 13.4897 17.9953 13.2403 19.208H14.0229C14.211 17.9096 14.4264 16.6387 14.6963 15.4223H13.9137ZM34.3344 15.4405C33.6427 15.0947 33.0669 15.6749 32.842 16.0228C32.906 15.8443 32.9097 15.6053 32.9694 15.4223H32.2777C32.0913 16.7222 31.8664 17.9837 31.6043 19.208H32.4051C32.4102 18.7062 32.5087 18.335 32.5871 17.8429C32.7545 16.7923 33.0002 15.64 34.2252 15.9865C34.2658 15.8088 34.2827 15.6072 34.3344 15.4405ZM25.5436 18.3161C25.4715 18.1298 25.4528 17.822 25.4708 17.5881C25.5113 17.0622 25.7029 16.4219 25.9987 16.1321C26.4068 15.732 27.2125 15.7982 27.8551 16.0228C27.875 15.8062 27.9185 15.6131 27.9461 15.4041C26.8921 15.232 25.892 15.339 25.3617 15.8955C24.8426 16.4402 24.5023 17.6922 24.7428 18.4799C25.0244 19.4017 26.2869 19.4518 27.3091 19.0987C27.3543 18.9135 27.3783 18.7069 27.4183 18.5163C26.8598 18.8066 25.7919 18.9574 25.5436 18.3161ZM25.1069 15.4223C24.4129 15.142 23.8674 15.6156 23.6145 16.0593C23.6718 15.8619 23.6955 15.6308 23.7419 15.4223H23.0502C22.8812 16.7335 22.6319 17.9646 22.3951 19.208H23.1777C23.2874 18.4699 23.3347 17.4751 23.578 16.7691C23.7725 16.2049 24.2815 15.7243 25.0159 15.9865C25.0262 15.7784 25.0858 15.6195 25.1069 15.4223ZM12.4942 13.8934C12.3824 14.6189 12.2564 15.3301 12.1301 16.0411C11.3193 16.0496 10.4916 16.0811 9.7095 16.0228C9.85722 15.3274 9.96316 14.59 10.1099 13.8934H9.2363C8.92356 15.6677 8.63909 17.4702 8.28989 19.208H9.18169C9.32163 18.3165 9.45242 17.4159 9.63665 16.5689C10.3971 16.5502 11.3084 16.5175 12.0391 16.5871C11.8885 17.4678 11.7064 18.317 11.5659 19.208H12.4578C12.7442 17.4075 13.0462 15.6225 13.4042 13.8934H12.4942ZM14.7146 14.6943C14.8706 14.5868 15.0715 14.0973 14.842 13.8934C14.7693 13.8289 14.6476 13.8102 14.478 13.8389C14.3206 13.8655 14.2301 13.919 14.1686 14.0026C14.0696 14.1373 13.979 14.5434 14.1321 14.6943C14.2812 14.8412 14.6153 14.7626 14.7146 14.6943Z" fill="#8C8F94"/>
</svg>
