<svg width="45" height="31" viewBox="0 0 45 31" fill="none" xmlns="http://www.w3.org/2000/svg">
<rect width="45" height="31" fill="#E5E5E5"/>
<path d="M-5303 -8390C-5303 -8391.1 -5302.1 -8392 -5301 -8392H20543C20544.1 -8392 20545 -8391.1 20545 -8390V4153C20545 4154.1 20544.1 4155 20543 4155H-5301C-5302.1 4155 -5303 4154.1 -5303 4153V-8390Z" fill="#DBDBDB"/>
<path d="M-5301 -8391H20543V-8393H-5301V-8391ZM20544 -8390V4153H20546V-8390H20544ZM20543 4154H-5301V4156H20543V4154ZM-5302 4153V-8390H-5304V4153H-5302ZM-5301 4154C-5301.55 4154 -5302 4153.55 -5302 4153H-5304C-5304 4154.66 -5302.66 4156 -5301 4156V4154ZM20544 4153C20544 4153.55 20543.6 4154 20543 4154V4156C20544.7 4156 20546 4154.66 20546 4153H20544ZM20543 -8391C20543.6 -8391 20544 -8390.55 20544 -8390H20546C20546 -8391.66 20544.7 -8393 20543 -8393V-8391ZM-5301 -8393C-5302.66 -8393 -5304 -8391.66 -5304 -8390H-5302C-5302 -8390.55 -5301.55 -8391 -5301 -8391V-8393Z" fill="black" fill-opacity="0.1"/>
<g clip-path="url(#clip0_1_8)">
<rect width="1920" height="5734" transform="translate(-964 -5224)" fill="white"/>
<rect width="1920" height="1105" transform="translate(-964 -595)" fill="#0B0C0C"/>
<rect x="1.16053" y="0.643687" width="42.4833" height="29.6096" stroke="#444649" stroke-width="1.28737"/>
<g clip-path="url(#clip1_1_8)">
<path d="M19.1641 21.2815V13.7376C19.1641 13.0711 19.4288 12.4319 19.9001 11.9606C20.3714 11.4894 21.0105 11.2246 21.677 11.2246L23.9042 11.2277C24.5689 11.2291 25.206 11.4941 25.6755 11.9646C26.145 12.4352 26.4087 13.0728 26.4086 13.7376V15.343C26.4086 16.0095 26.1438 16.6487 25.6726 17.12C25.2013 17.5914 24.5621 17.8562 23.8956 17.8563H20.7477" stroke="#8C8F94" stroke-width="0.243102" stroke-linecap="round" stroke-linejoin="round"/>
<path d="M27.0315 11.2246H27.9977C28.2712 11.2246 28.5336 11.3333 28.727 11.5267C28.9205 11.7201 29.0291 11.9825 29.0291 12.256V17.8909" stroke="#8C8F94" stroke-width="0.243102" stroke-linecap="round" stroke-linejoin="round"/>
<mask id="path-6-inside-1_1_8" fill="white">
<path d="M28.8211 10.3515L28.383 9.91303C28.3572 9.8872 28.3367 9.85654 28.3227 9.82279C28.3087 9.78904 28.3015 9.75287 28.3015 9.71633C28.3015 9.6798 28.3087 9.64362 28.3227 9.60987C28.3367 9.57612 28.3572 9.54546 28.383 9.51964L28.8211 9.08159C28.8734 9.02935 28.9443 9 29.0182 9C29.0921 9 29.163 9.02935 29.2153 9.08159L29.6529 9.51964C29.6788 9.54546 29.6993 9.57612 29.7132 9.60987C29.7272 9.64362 29.7344 9.6798 29.7344 9.71633C29.7344 9.75287 29.7272 9.78904 29.7132 9.82279C29.6993 9.85654 29.6788 9.8872 29.6529 9.91303L29.2133 10.3515C29.1875 10.3773 29.1568 10.3978 29.123 10.4118C29.0892 10.4258 29.053 10.433 29.0164 10.433C28.9799 10.433 28.9436 10.4258 28.9099 10.4118C28.8761 10.3978 28.8454 10.3773 28.8195 10.3515"/>
</mask>
<path d="M28.8211 10.3515L28.383 9.91303C28.3572 9.8872 28.3367 9.85654 28.3227 9.82279C28.3087 9.78904 28.3015 9.75287 28.3015 9.71633C28.3015 9.6798 28.3087 9.64362 28.3227 9.60987C28.3367 9.57612 28.3572 9.54546 28.383 9.51964L28.8211 9.08159C28.8734 9.02935 28.9443 9 29.0182 9C29.0921 9 29.163 9.02935 29.2153 9.08159L29.6529 9.51964C29.6788 9.54546 29.6993 9.57612 29.7132 9.60987C29.7272 9.64362 29.7344 9.6798 29.7344 9.71633C29.7344 9.75287 29.7272 9.78904 29.7132 9.82279C29.6993 9.85654 29.6788 9.8872 29.6529 9.91303L29.2133 10.3515C29.1875 10.3773 29.1568 10.3978 29.123 10.4118C29.0892 10.4258 29.053 10.433 29.0164 10.433C28.9799 10.433 28.9436 10.4258 28.9099 10.4118C28.8761 10.3978 28.8454 10.3773 28.8195 10.3515" fill="#71747A"/>
<path d="M28.383 9.91303L28.4105 9.88558L28.4105 9.88556L28.383 9.91303ZM28.383 9.51964L28.4105 9.54711L28.4105 9.5471L28.383 9.51964ZM28.8211 9.08159L28.7936 9.05412L28.7936 9.05413L28.8211 9.08159ZM29.0182 9V9.03883V9ZM29.2153 9.08159L29.2427 9.05414L29.2427 9.05412L29.2153 9.08159ZM29.6529 9.51964L29.6254 9.54709L29.6255 9.54711L29.6529 9.51964ZM29.6529 9.91303L29.6803 9.94052L29.6804 9.9405L29.6529 9.91303ZM29.2133 10.3515L29.1859 10.324L29.1858 10.324L29.2133 10.3515ZM28.8486 10.324L28.4105 9.88558L28.3556 9.94048L28.7936 10.3789L28.8486 10.324ZM28.4105 9.88556C28.3882 9.86334 28.3706 9.83696 28.3586 9.80792L28.2868 9.83766C28.3028 9.87612 28.3261 9.91107 28.3556 9.9405L28.4105 9.88556ZM28.3586 9.80792C28.3465 9.77889 28.3403 9.74776 28.3403 9.71633H28.2627C28.2627 9.75797 28.2709 9.7992 28.2868 9.83766L28.3586 9.80792ZM28.3403 9.71633C28.3403 9.6849 28.3465 9.65378 28.3586 9.62474L28.2868 9.595C28.2709 9.63347 28.2627 9.6747 28.2627 9.71633H28.3403ZM28.3586 9.62474C28.3706 9.59571 28.3882 9.56933 28.4105 9.54711L28.3556 9.49217C28.3261 9.5216 28.3028 9.55654 28.2868 9.595L28.3586 9.62474ZM28.4105 9.5471L28.8485 9.10905L28.7936 9.05413L28.3556 9.49218L28.4105 9.5471ZM28.8485 9.10906C28.8935 9.06409 28.9546 9.03883 29.0182 9.03883V8.96117C28.934 8.96117 28.8532 8.9946 28.7936 9.05412L28.8485 9.10906ZM29.0182 9.03883C29.0818 9.03883 29.1428 9.06409 29.1878 9.10906L29.2427 9.05412C29.1831 8.9946 29.1024 8.96117 29.0182 8.96117V9.03883ZM29.1878 9.10904L29.6254 9.54709L29.6804 9.49219L29.2427 9.05414L29.1878 9.10904ZM29.6255 9.54711C29.6477 9.56933 29.6653 9.59571 29.6774 9.62474L29.7491 9.595C29.7332 9.55654 29.7098 9.5216 29.6804 9.49217L29.6255 9.54711ZM29.6774 9.62474C29.6894 9.65378 29.6956 9.6849 29.6956 9.71633H29.7733C29.7733 9.6747 29.7651 9.63347 29.7491 9.595L29.6774 9.62474ZM29.6956 9.71633C29.6956 9.74776 29.6894 9.77889 29.6774 9.80792L29.7491 9.83766C29.7651 9.7992 29.7733 9.75797 29.7733 9.71633H29.6956ZM29.6774 9.80792C29.6653 9.83696 29.6477 9.86334 29.6255 9.88556L29.6804 9.9405C29.7098 9.91107 29.7332 9.87612 29.7491 9.83766L29.6774 9.80792ZM29.6255 9.88553L29.1859 10.324L29.2407 10.379L29.6803 9.94052L29.6255 9.88553ZM29.1858 10.324C29.1636 10.3463 29.1372 10.3639 29.1081 10.3759L29.1378 10.4477C29.1763 10.4318 29.2113 10.4084 29.2408 10.3789L29.1858 10.324ZM29.1081 10.3759C29.079 10.388 29.0479 10.3942 29.0164 10.3942V10.4719C29.0581 10.4719 29.0993 10.4636 29.1378 10.4477L29.1081 10.3759ZM29.0164 10.3942C28.985 10.3942 28.9538 10.388 28.9247 10.3759L28.895 10.4477C28.9335 10.4636 28.9748 10.4719 29.0164 10.4719V10.3942ZM28.9247 10.3759C28.8957 10.3639 28.8692 10.3463 28.847 10.324L28.7921 10.3789C28.8215 10.4084 28.8565 10.4318 28.895 10.4477L28.9247 10.3759Z" fill="#8C8F94" mask="url(#path-6-inside-1_1_8)"/>
<path d="M30.8835 11.2192H31.8416C32.3344 11.219 32.8071 11.4146 33.1557 11.7629L35.3968 14.004C35.4658 14.0731 35.5478 14.1279 35.638 14.1653C35.7282 14.2027 35.8248 14.2219 35.9225 14.2219C36.0201 14.2219 36.1168 14.2027 36.207 14.1653C36.2972 14.1279 36.3791 14.0731 36.4481 14.004L38.6811 11.7715C38.8536 11.599 39.0584 11.4622 39.2838 11.3689C39.5092 11.2756 39.7508 11.2276 39.9948 11.2278H40.7738" stroke="#8C8F94" stroke-width="0.243102" stroke-linecap="round" stroke-linejoin="round"/>
<path d="M30.8835 17.8412H31.8416C32.3344 17.8414 32.8071 17.6458 33.1557 17.2976L35.3968 15.0564C35.5363 14.9171 35.7253 14.8389 35.9225 14.8389C36.1196 14.8389 36.3086 14.9171 36.4481 15.0564L38.6811 17.2894C39.0296 17.6377 39.5021 17.8332 39.9948 17.8331H40.7738" stroke="#8C8F94" stroke-width="0.243102" stroke-linecap="round" stroke-linejoin="round"/>
<mask id="path-10-inside-2_1_8" fill="white">
<path d="M13.452 19.2728C13.2156 19.2737 12.9814 19.2277 12.7629 19.1375C12.5444 19.0473 12.346 18.9147 12.179 18.7474L10.3402 16.9074C10.2752 16.8453 10.1887 16.8105 10.0987 16.8105C10.0087 16.8105 9.92217 16.8453 9.85714 16.9074L8.01213 18.7525C7.84527 18.92 7.64687 19.0529 7.42837 19.1433C7.20987 19.2338 6.97562 19.28 6.73914 19.2794H6.37915L8.7092 21.6095C9.05866 21.9582 9.53218 22.154 10.0259 22.154C10.5196 22.154 10.9931 21.9582 11.3425 21.6095L13.6772 19.2744L13.452 19.2728Z"/>
</mask>
<path d="M13.452 19.2728C13.2156 19.2737 12.9814 19.2277 12.7629 19.1375C12.5444 19.0473 12.346 18.9147 12.179 18.7474L10.3402 16.9074C10.2752 16.8453 10.1887 16.8105 10.0987 16.8105C10.0087 16.8105 9.92217 16.8453 9.85714 16.9074L8.01213 18.7525C7.84527 18.92 7.64687 19.0529 7.42837 19.1433C7.20987 19.2338 6.97562 19.28 6.73914 19.2794H6.37915L8.7092 21.6095C9.05866 21.9582 9.53218 22.154 10.0259 22.154C10.5196 22.154 10.9931 21.9582 11.3425 21.6095L13.6772 19.2744L13.452 19.2728Z" fill="#71747A" stroke="#8C8F94" stroke-width="0.0776683" mask="url(#path-10-inside-2_1_8)"/>
<mask id="path-11-inside-3_1_8" fill="white">
<path d="M6.73953 12.7706C6.97601 12.77 7.21027 12.8162 7.42877 12.9067C7.64727 12.9971 7.84567 13.13 8.01251 13.2976L9.85752 15.143C9.92166 15.2069 10.0085 15.2428 10.0991 15.2428C10.1896 15.2428 10.2765 15.2069 10.3406 15.143L12.179 13.3046C12.3457 13.1368 12.5441 13.0037 12.7626 12.9132C12.9812 12.8227 13.2155 12.7765 13.452 12.7772H13.6734L11.3387 10.4425C11.1658 10.2696 10.9605 10.1324 10.7346 10.0388C10.5087 9.94515 10.2665 9.89697 10.022 9.89697C9.77744 9.89697 9.5353 9.94515 9.30938 10.0388C9.08346 10.1324 8.8782 10.2696 8.70532 10.4425L6.37915 12.7706H6.73953Z"/>
</mask>
<path d="M6.73953 12.7706C6.97601 12.77 7.21027 12.8162 7.42877 12.9067C7.64727 12.9971 7.84567 13.13 8.01251 13.2976L9.85752 15.143C9.92166 15.2069 10.0085 15.2428 10.0991 15.2428C10.1896 15.2428 10.2765 15.2069 10.3406 15.143L12.179 13.3046C12.3457 13.1368 12.5441 13.0037 12.7626 12.9132C12.9812 12.8227 13.2155 12.7765 13.452 12.7772H13.6734L11.3387 10.4425C11.1658 10.2696 10.9605 10.1324 10.7346 10.0388C10.5087 9.94515 10.2665 9.89697 10.022 9.89697C9.77744 9.89697 9.5353 9.94515 9.30938 10.0388C9.08346 10.1324 8.8782 10.2696 8.70532 10.4425L6.37915 12.7706H6.73953Z" fill="#71747A" stroke="#8C8F94" stroke-width="0.0776683" mask="url(#path-11-inside-3_1_8)"/>
<mask id="path-12-inside-4_1_8" fill="white">
<path d="M15.6045 14.7086L14.1937 13.2977C14.1619 13.3107 14.1279 13.3176 14.0935 13.3179H13.452C13.1181 13.3187 12.7981 13.4513 12.5615 13.6868L10.7231 15.5241C10.5575 15.6893 10.3331 15.7822 10.0992 15.7822C9.86528 15.7822 9.6409 15.6893 9.47534 15.5241L7.62994 13.6798C7.39339 13.4442 7.07337 13.3115 6.73947 13.3105H5.95192C5.91946 13.3098 5.88738 13.3034 5.85716 13.2915L4.43739 14.7086C4.08867 15.058 3.89282 15.5315 3.89282 16.0252C3.89282 16.5189 4.08867 16.9924 4.43739 17.3419L5.85405 18.7586C5.88421 18.7465 5.91633 18.74 5.94881 18.7395H6.73947C7.07336 18.7386 7.39337 18.6058 7.62994 18.3702L9.47495 16.5252C9.80853 16.192 10.3899 16.192 10.7231 16.5252L12.5615 18.3632C12.7981 18.5987 13.1181 18.7313 13.452 18.7322H14.0935C14.1279 18.7324 14.1619 18.7393 14.1937 18.7524L15.6045 17.3415C15.7775 17.1686 15.9147 16.9634 16.0083 16.7374C16.1019 16.5115 16.1501 16.2694 16.1501 16.0248C16.1501 15.7803 16.1019 15.5382 16.0083 15.3122C15.9147 15.0863 15.7775 14.8811 15.6045 14.7082"/>
</mask>
<path d="M15.6045 14.7086L14.1937 13.2977C14.1619 13.3107 14.1279 13.3176 14.0935 13.3179H13.452C13.1181 13.3187 12.7981 13.4513 12.5615 13.6868L10.7231 15.5241C10.5575 15.6893 10.3331 15.7822 10.0992 15.7822C9.86528 15.7822 9.6409 15.6893 9.47534 15.5241L7.62994 13.6798C7.39339 13.4442 7.07337 13.3115 6.73947 13.3105H5.95192C5.91946 13.3098 5.88738 13.3034 5.85716 13.2915L4.43739 14.7086C4.08867 15.058 3.89282 15.5315 3.89282 16.0252C3.89282 16.5189 4.08867 16.9924 4.43739 17.3419L5.85405 18.7586C5.88421 18.7465 5.91633 18.74 5.94881 18.7395H6.73947C7.07336 18.7386 7.39337 18.6058 7.62994 18.3702L9.47495 16.5252C9.80853 16.192 10.3899 16.192 10.7231 16.5252L12.5615 18.3632C12.7981 18.5987 13.1181 18.7313 13.452 18.7322H14.0935C14.1279 18.7324 14.1619 18.7393 14.1937 18.7524L15.6045 17.3415C15.7775 17.1686 15.9147 16.9634 16.0083 16.7374C16.1019 16.5115 16.1501 16.2694 16.1501 16.0248C16.1501 15.7803 16.1019 15.5382 16.0083 15.3122C15.9147 15.0863 15.7775 14.8811 15.6045 14.7082" fill="#71747A"/>
<path d="M14.1937 13.2977L14.2211 13.2703L14.2029 13.252L14.179 13.2618L14.1937 13.2977ZM14.0935 13.3179V13.3567L14.0939 13.3567L14.0935 13.3179ZM13.452 13.3179V13.2791L13.4519 13.2791L13.452 13.3179ZM12.5615 13.6868L12.5341 13.6593L12.534 13.6594L12.5615 13.6868ZM10.7231 15.5241L10.7505 15.5516L10.7505 15.5515L10.7231 15.5241ZM9.47534 15.5241L9.44789 15.5515L9.4479 15.5516L9.47534 15.5241ZM7.62994 13.6798L7.65739 13.6524L7.65735 13.6523L7.62994 13.6798ZM6.73947 13.3105L6.73958 13.2717H6.73947V13.3105ZM5.95192 13.3105L5.95104 13.3494H5.95192V13.3105ZM5.85716 13.2915L5.87134 13.2554L5.8477 13.2461L5.82973 13.264L5.85716 13.2915ZM4.43739 14.7086L4.40995 14.6811L4.4099 14.6811L4.43739 14.7086ZM3.89282 16.0252H3.85399H3.89282ZM4.43739 17.3419L4.4099 17.3693L4.40993 17.3694L4.43739 17.3419ZM5.85405 18.7586L5.82659 18.786L5.84471 18.8041L5.86849 18.7946L5.85405 18.7586ZM5.94881 18.7395V18.7007L5.94821 18.7007L5.94881 18.7395ZM6.73947 18.7395V18.7784L6.73959 18.7784L6.73947 18.7395ZM7.62994 18.3702L7.65734 18.3977L7.6574 18.3977L7.62994 18.3702ZM9.47495 16.5252L9.44751 16.4977L9.44749 16.4978L9.47495 16.5252ZM10.7231 16.5252L10.6956 16.5527L10.6956 16.5527L10.7231 16.5252ZM12.5615 18.3632L12.534 18.3907L12.5341 18.3908L12.5615 18.3632ZM13.452 18.7322L13.4519 18.771H13.452V18.7322ZM14.0935 18.7322L14.0938 18.6933H14.0935V18.7322ZM14.1937 18.7524L14.1789 18.7883L14.2028 18.7981L14.2211 18.7798L14.1937 18.7524ZM15.6045 17.3415L15.5771 17.3141L15.5771 17.3141L15.6045 17.3415ZM15.632 14.6811L14.2211 13.2703L14.1662 13.3252L15.5771 14.736L15.632 14.6811ZM14.179 13.2618C14.1517 13.2729 14.1226 13.2788 14.0931 13.2791L14.0939 13.3567C14.1332 13.3564 14.172 13.3485 14.2084 13.3337L14.179 13.2618ZM14.0935 13.2791H13.452V13.3567H14.0935V13.2791ZM13.4519 13.2791C13.1078 13.2799 12.778 13.4166 12.5341 13.6593L12.5889 13.7144C12.8182 13.4861 13.1284 13.3576 13.4521 13.3567L13.4519 13.2791ZM12.534 13.6594L10.6956 15.4966L10.7505 15.5515L12.5889 13.7143L12.534 13.6594ZM10.6956 15.4966C10.5374 15.6546 10.3229 15.7433 10.0992 15.7433V15.821C10.3434 15.821 10.5777 15.7241 10.7505 15.5516L10.6956 15.4966ZM10.0992 15.7433C9.87556 15.7433 9.66106 15.6546 9.50277 15.4966L9.4479 15.5516C9.62075 15.7241 9.85499 15.821 10.0992 15.821V15.7433ZM9.50279 15.4966L7.65739 13.6524L7.60249 13.7073L9.44789 15.5515L9.50279 15.4966ZM7.65735 13.6523C7.41354 13.4095 7.08371 13.2727 6.73958 13.2717L6.73936 13.3494C7.06302 13.3503 7.37323 13.4789 7.60253 13.7074L7.65735 13.6523ZM6.73947 13.2717H5.95192V13.3494H6.73947V13.2717ZM5.95279 13.2717C5.92489 13.2711 5.89732 13.2655 5.87134 13.2554L5.84298 13.3277C5.87745 13.3412 5.91403 13.3485 5.95104 13.3494L5.95279 13.2717ZM5.82973 13.264L4.40995 14.6811L4.46482 14.736L5.88459 13.319L5.82973 13.264ZM4.4099 14.6811C4.05391 15.0379 3.85399 15.5213 3.85399 16.0252H3.93166C3.93166 15.5418 4.12342 15.0782 4.46487 14.736L4.4099 14.6811ZM3.85399 16.0252C3.85399 16.5292 4.05391 17.0126 4.4099 17.3693L4.46487 17.3145C4.12342 16.9723 3.93166 16.5086 3.93166 16.0252H3.85399ZM4.40993 17.3694L5.82659 18.786L5.88151 18.7311L4.46485 17.3144L4.40993 17.3694ZM5.86849 18.7946C5.89425 18.7843 5.92167 18.7788 5.94941 18.7784L5.94821 18.7007C5.91098 18.7013 5.87418 18.7087 5.83962 18.7225L5.86849 18.7946ZM5.94881 18.7784H6.73947V18.7007H5.94881V18.7784ZM6.73959 18.7784C7.08371 18.7774 7.41352 18.6406 7.65734 18.3977L7.60254 18.3427C7.37321 18.5711 7.06301 18.6998 6.73936 18.7007L6.73959 18.7784ZM7.6574 18.3977L9.50241 16.5527L9.44749 16.4978L7.60248 18.3428L7.6574 18.3977ZM9.50239 16.5527C9.82083 16.2346 10.3776 16.2347 10.6956 16.5527L10.7505 16.4978C10.4022 16.1494 9.79624 16.1494 9.44751 16.4977L9.50239 16.5527ZM10.6956 16.5527L12.534 18.3907L12.5889 18.3358L10.7505 16.4978L10.6956 16.5527ZM12.5341 18.3908C12.778 18.6335 13.1078 18.7701 13.4519 18.771L13.4521 18.6933C13.1284 18.6925 12.8182 18.564 12.5889 18.3357L12.5341 18.3908ZM13.452 18.771H14.0935V18.6933H13.452V18.771ZM14.0932 18.771C14.1226 18.7712 14.1517 18.7771 14.1789 18.7883L14.2085 18.7165C14.1721 18.7015 14.1331 18.6936 14.0938 18.6933L14.0932 18.771ZM14.2211 18.7798L15.632 17.369L15.5771 17.3141L14.1662 18.7249L14.2211 18.7798ZM15.632 17.369C15.8085 17.1925 15.9486 16.9829 16.0442 16.7523L15.9724 16.7226C15.8808 16.9438 15.7464 17.1448 15.5771 17.3141L15.632 17.369ZM16.0442 16.7523C16.1397 16.5217 16.1889 16.2745 16.1889 16.0248H16.1112C16.1112 16.2643 16.0641 16.5014 15.9724 16.7226L16.0442 16.7523ZM16.1889 16.0248C16.1889 15.7752 16.1397 15.528 16.0442 15.2974L15.9724 15.3271C16.0641 15.5483 16.1112 15.7854 16.1112 16.0248H16.1889ZM16.0442 15.2974C15.9486 15.0667 15.8085 14.8572 15.632 14.6807L15.5771 14.7356C15.7464 14.9049 15.8808 15.1059 15.9724 15.3271L16.0442 15.2974Z" fill="#8C8F94" mask="url(#path-12-inside-4_1_8)"/>
<path d="M21.0794 20.6404C20.9628 20.6455 20.847 20.6631 20.7342 20.6928V21.1526C20.8205 21.1829 20.9114 21.1981 21.0029 21.1976C21.2336 21.1976 21.3427 21.12 21.3427 20.9169C21.3427 20.7258 21.2534 20.6404 21.0794 20.6404ZM20.6565 21.4947V20.5848H20.7198L20.7264 20.6237C20.844 20.5924 20.9645 20.573 21.086 20.5658C21.1702 20.5599 21.2537 20.5841 21.3217 20.6342C21.3994 20.6986 21.4258 20.8027 21.4258 20.9161C21.4258 21.0295 21.387 21.1468 21.2782 21.2085C21.1952 21.2499 21.1034 21.2703 21.0107 21.2679C20.9169 21.2673 20.8238 21.2531 20.7342 21.2256V21.4932L20.6565 21.4947Z" fill="#939598"/>
<path d="M22.0044 20.638C21.7741 20.638 21.6712 20.7102 21.6712 20.9133C21.6712 21.1094 21.7726 21.1979 22.0044 21.1979C22.2363 21.1979 22.3365 21.1265 22.3365 20.9238C22.3365 20.7277 22.2351 20.638 22.0044 20.638ZM22.3011 21.1979C22.2235 21.2531 22.1217 21.269 22.0044 21.269C21.8872 21.269 21.7819 21.2519 21.707 21.1979C21.6227 21.1385 21.5881 21.0426 21.5881 20.9187C21.5881 20.7949 21.6227 20.6985 21.707 20.638C21.7819 20.584 21.8848 20.5669 22.0044 20.5669C22.124 20.5669 22.2246 20.584 22.3011 20.638C22.3866 20.6985 22.4196 20.7972 22.4196 20.9172C22.4196 21.0372 22.3854 21.1385 22.3011 21.1979Z" fill="#939598"/>
<path d="M23.3929 21.2502L23.1358 20.6984H23.1308L22.8776 21.2502H22.8065L22.5347 20.585H22.6201L22.8481 21.1434H22.8535L23.1013 20.585H23.1723L23.4263 21.1434H23.4317L23.6543 20.585H23.7385L23.4644 21.2502H23.3929Z" fill="#939598"/>
<path d="M24.2336 20.6363C24.02 20.6363 23.9478 20.7314 23.9346 20.8693H24.5327C24.5261 20.7178 24.4484 20.6363 24.2336 20.6363ZM24.2309 21.2689C24.1032 21.2689 24.02 21.2502 23.954 21.1951C23.8764 21.1279 23.8503 21.0304 23.8503 20.9186C23.8503 20.8068 23.8857 20.6984 23.9742 20.6339C24.0517 20.5852 24.1423 20.5618 24.2336 20.5668C24.3268 20.5611 24.4194 20.5836 24.4996 20.6312C24.5956 20.6957 24.6142 20.8091 24.6142 20.938H23.9327C23.9354 21.0751 23.98 21.1963 24.2383 21.1963C24.3538 21.1932 24.4687 21.1802 24.582 21.1574V21.2273C24.4669 21.251 24.3499 21.2646 24.2325 21.2681" fill="#939598"/>
<path d="M24.8374 21.2502V20.5849H24.9003L24.9069 20.6238C25.0479 20.5881 25.1139 20.5659 25.2378 20.5659H25.2471V20.6397H25.2285C25.1244 20.6397 25.0611 20.6541 24.9151 20.6921V21.2494L24.8374 21.2502Z" fill="#939598"/>
<path d="M25.6985 20.6363C25.4853 20.6363 25.4127 20.7314 25.3995 20.8693H25.9975C25.9909 20.7178 25.9132 20.6363 25.6985 20.6363ZM25.6958 21.2689C25.568 21.2689 25.4853 21.2502 25.4193 21.1951C25.3416 21.1279 25.3152 21.0304 25.3152 20.9186C25.3152 20.8068 25.3509 20.6984 25.4391 20.6339C25.5165 20.5853 25.6071 20.5619 25.6985 20.5668C25.7916 20.5611 25.8843 20.5836 25.9645 20.6312C26.0608 20.6957 26.081 20.8091 26.081 20.938H25.3967C25.3995 21.0751 25.4441 21.1963 25.7024 21.1963C25.818 21.1932 25.9331 21.1802 26.0464 21.1574V21.2273C25.9313 21.251 25.8144 21.2646 25.6969 21.2681" fill="#939598"/>
<path d="M26.9304 20.6825C26.844 20.6524 26.7531 20.6373 26.6617 20.6379C26.431 20.6379 26.3219 20.7156 26.3219 20.9187C26.3219 21.1109 26.4116 21.1952 26.5852 21.1952C26.7017 21.1898 26.8174 21.1724 26.9304 21.1435V20.6825ZM26.9452 21.2503L26.9382 21.2115C26.8206 21.2431 26.7001 21.2626 26.5786 21.2697C26.4943 21.2761 26.4105 21.2516 26.3428 21.201C26.2652 21.1365 26.2388 21.0324 26.2388 20.9194C26.2388 20.8006 26.2776 20.6888 26.3863 20.6282C26.4694 20.5858 26.5618 20.565 26.6551 20.5676C26.7483 20.5689 26.841 20.583 26.9304 20.6095V20.3047H27.0081V21.2503H26.9452Z" fill="#939598"/>
<path d="M28.1473 20.6406C28.0307 20.6457 27.9149 20.6633 27.802 20.693V21.1517C27.8882 21.1828 27.9792 21.1984 28.0708 21.1979C28.3014 21.1979 28.4106 21.1202 28.4106 20.9171C28.4106 20.726 28.3212 20.6406 28.1473 20.6406ZM28.3461 21.2095C28.2632 21.2509 28.1715 21.2713 28.0789 21.2689C27.9776 21.2683 27.877 21.2514 27.7811 21.2188L27.7772 21.2503H27.7244V20.3047H27.802V20.622C27.9173 20.5925 28.0351 20.574 28.1539 20.5668C28.2381 20.5609 28.3216 20.5851 28.3896 20.6352C28.4673 20.6996 28.4937 20.8037 28.4937 20.9171C28.4937 21.0305 28.4548 21.1478 28.3461 21.2095Z" fill="#939598"/>
<path d="M28.5971 21.5047V21.4325C28.6359 21.4364 28.6708 21.4391 28.6957 21.4391C28.792 21.4391 28.851 21.4112 28.9039 21.302L28.9291 21.2492L28.5796 20.584H28.6697L28.9675 21.1583H28.9726L29.2557 20.584H29.3442L28.9699 21.3312C28.9015 21.4667 28.8277 21.5113 28.6918 21.5113C28.6597 21.5112 28.6277 21.509 28.5959 21.5047" fill="#939598"/>
<path d="M30.4181 20.8709H30.1602V21.1039H30.4181C30.596 21.1039 30.6631 21.0841 30.6631 20.9874C30.6631 20.8833 30.5707 20.8709 30.4165 20.8709M30.3699 20.4949H30.1595V20.7318H30.3715C30.5466 20.7318 30.6165 20.7109 30.6165 20.6122C30.6165 20.5066 30.528 20.4957 30.3699 20.4957M30.7707 21.1901C30.6756 21.2506 30.561 21.253 30.3517 21.253H29.9575V20.3481H30.3424C30.5229 20.3481 30.6336 20.3505 30.7257 20.406C30.7562 20.4242 30.7811 20.4507 30.7974 20.4823C30.8138 20.514 30.8209 20.5495 30.8181 20.585C30.8181 20.6798 30.7792 20.7431 30.6756 20.7854V20.7905C30.7921 20.8169 30.8666 20.8763 30.8666 21.0041C30.8695 21.0405 30.8621 21.0771 30.8451 21.1095C30.8281 21.142 30.8023 21.1689 30.7707 21.1873" fill="#939598"/>
<path d="M31.6539 20.9709C31.5762 20.9643 31.4986 20.9604 31.4143 20.9604C31.2788 20.9604 31.231 20.988 31.231 21.0501C31.231 21.1122 31.2698 21.1394 31.3747 21.1394C31.4689 21.1363 31.5624 21.1233 31.6539 21.1006V20.9709ZM31.6927 21.2501L31.6877 21.2113C31.5699 21.2444 31.4487 21.264 31.3265 21.2695C31.2559 21.2743 31.1855 21.2572 31.125 21.2206C31.0989 21.1987 31.0787 21.1708 31.0662 21.1392C31.0536 21.1076 31.049 21.0734 31.0528 21.0397C31.0567 21.0059 31.0688 20.9736 31.0882 20.9457C31.1076 20.9178 31.1335 20.8951 31.1638 20.8796C31.2337 20.8466 31.3273 20.8439 31.4131 20.8439C31.4826 20.8439 31.5762 20.8478 31.6539 20.8532V20.8412C31.6539 20.7371 31.5855 20.7029 31.3984 20.7029C31.3261 20.7029 31.2376 20.7068 31.1533 20.7146V20.5802C31.2469 20.5724 31.3525 20.5674 31.4395 20.5674C31.556 20.5674 31.6753 20.5763 31.7502 20.6291C31.8252 20.6819 31.8411 20.7584 31.8411 20.8571V21.2509L31.6927 21.2501Z" fill="#939598"/>
<path d="M32.7085 21.2504V20.8835C32.7085 20.7623 32.6468 20.7188 32.5361 20.7188C32.4442 20.7229 32.3531 20.7369 32.2642 20.7607V21.2508H32.0786V20.5852H32.2301L32.2367 20.6275C32.3525 20.5935 32.4718 20.5731 32.5924 20.567C32.6742 20.5604 32.7556 20.5848 32.8203 20.6353C32.8728 20.6827 32.8926 20.7487 32.8926 20.8435V21.2504H32.7085Z" fill="#939598"/>
<path d="M33.4175 21.269C33.3316 21.269 33.238 21.257 33.1697 21.1991C33.0881 21.1331 33.0645 21.0294 33.0645 20.9172C33.0645 20.8119 33.0986 20.697 33.2 20.6325C33.2831 20.5785 33.3856 20.5669 33.4924 20.5669C33.5701 20.5669 33.6439 20.5719 33.7254 20.5797V20.7222C33.6582 20.7156 33.5778 20.7106 33.5134 20.7106C33.3367 20.7106 33.2536 20.7657 33.2536 20.9187C33.2536 21.062 33.3157 21.1242 33.4606 21.1242C33.5545 21.1211 33.6479 21.1097 33.7398 21.09V21.2267C33.6335 21.2514 33.525 21.2656 33.4159 21.269" fill="#939598"/>
<path d="M34.2909 20.7063C34.1142 20.7063 34.0365 20.7618 34.0365 20.9133C34.0365 21.0647 34.1142 21.1292 34.2909 21.1292C34.4676 21.1292 34.5425 21.0752 34.5425 20.9238C34.5425 20.7723 34.4676 20.7063 34.2909 20.7063ZM34.6097 21.1991C34.5282 21.2543 34.4214 21.269 34.2909 21.269C34.1604 21.269 34.0513 21.2531 33.9709 21.1991C33.8785 21.1385 33.8455 21.0383 33.8455 20.9187C33.8455 20.7991 33.8785 20.697 33.9709 20.6364C34.0513 20.5824 34.1577 20.5669 34.2909 20.5669C34.4241 20.5669 34.5282 20.5824 34.6097 20.6364C34.7018 20.697 34.7336 20.7987 34.7336 20.9172C34.7336 21.0356 34.7006 21.1385 34.6097 21.1991Z" fill="#939598"/>
<path d="M35.8059 21.269C35.6941 21.269 35.5729 21.2503 35.482 21.1754C35.3741 21.0857 35.3411 20.9474 35.3411 20.7987C35.3411 20.6655 35.3834 20.5075 35.524 20.4154C35.6335 20.3443 35.769 20.3296 35.9061 20.3296C36.0063 20.3296 36.1092 20.3362 36.221 20.3455V20.5075C36.1251 20.4997 36.0063 20.4931 35.9143 20.4931C35.6572 20.4931 35.548 20.5906 35.548 20.7987C35.548 21.0069 35.6494 21.1055 35.8389 21.1055C35.9743 21.1008 36.109 21.0827 36.2409 21.0515V21.2123C36.0981 21.2453 35.9524 21.2643 35.8059 21.269Z" fill="#939598"/>
<path d="M36.7866 20.685C36.6312 20.685 36.573 20.7406 36.5609 20.8404H37.0091C37.0036 20.7324 36.9403 20.685 36.7866 20.685ZM36.7586 21.2676C36.6495 21.2676 36.5505 21.2543 36.4767 21.1938C36.4029 21.1332 36.3699 21.0291 36.3699 20.9157C36.3699 20.8144 36.4029 20.701 36.4953 20.6349C36.5769 20.5771 36.6809 20.5654 36.7866 20.5654C36.8813 20.5654 36.9932 20.5759 37.0747 20.6326C37.1815 20.7076 37.1912 20.8237 37.1912 20.9604H36.5598C36.5637 21.0621 36.6176 21.1277 36.8048 21.1277C36.9237 21.1252 37.0422 21.1137 37.1594 21.0936V21.2241C37.0271 21.2492 36.8931 21.2637 36.7586 21.2676Z" fill="#939598"/>
<path d="M38.0181 21.2504V20.8835C38.0181 20.7623 37.9563 20.7188 37.8457 20.7188C37.7538 20.7229 37.6626 20.7369 37.5738 20.7607V21.2508H37.3882V20.5852H37.5396L37.5462 20.6275C37.662 20.5935 37.7814 20.5731 37.902 20.567C37.9838 20.5604 38.0652 20.5848 38.1299 20.6353C38.1823 20.6827 38.2021 20.7487 38.2021 20.8435V21.2504H38.0181Z" fill="#939598"/>
<path d="M38.7315 21.2687C38.6418 21.2687 38.5602 21.2435 38.5156 21.1736C38.479 21.1131 38.4619 21.0429 38.4666 20.9724V20.7231H38.3323V20.5849H38.4666L38.4864 20.3833H38.6503V20.5849H38.9125V20.7231H38.6503V20.9367C38.6479 20.9797 38.6541 21.0227 38.6686 21.0633C38.6884 21.1079 38.7319 21.125 38.7901 21.125C38.8347 21.1242 38.8791 21.1198 38.9229 21.1118V21.245C38.8597 21.2587 38.7954 21.2666 38.7307 21.2687" fill="#939598"/>
<path d="M39.094 21.2502V20.585H39.2454L39.252 20.6273C39.3583 20.5913 39.4692 20.5709 39.5814 20.5668C39.5893 20.5663 39.5972 20.5663 39.6051 20.5668V20.7279C39.5841 20.7279 39.5588 20.7279 39.5406 20.7279C39.4525 20.7283 39.3648 20.7398 39.2796 20.7621V21.2533L39.094 21.2502Z" fill="#939598"/>
<path d="M40.2814 20.9709C40.2037 20.9643 40.126 20.9604 40.0414 20.9604C39.9058 20.9604 39.8585 20.988 39.8585 21.0501C39.8585 21.1122 39.8973 21.1394 40.0018 21.1394C40.0961 21.1363 40.1898 21.1233 40.2814 21.1006V20.9709ZM40.3202 21.2501L40.3148 21.2113C40.197 21.2444 40.0758 21.264 39.9536 21.2695C39.883 21.2743 39.8126 21.2572 39.7521 21.2206C39.7276 21.2018 39.7081 21.1774 39.6952 21.1493C39.6824 21.1213 39.6765 21.0906 39.6783 21.0598C39.6765 21.0219 39.6863 20.9844 39.7063 20.9522C39.7264 20.92 39.7557 20.8947 39.7905 20.8796C39.8604 20.8466 39.9536 20.8439 40.0394 20.8439C40.1093 20.8439 40.2029 20.8478 40.2806 20.8532V20.8412C40.2806 20.7371 40.2119 20.7029 40.0251 20.7029C39.9525 20.7029 39.8643 20.7068 39.78 20.7146V20.5802C39.8736 20.5724 39.9789 20.5674 40.0658 20.5674C40.1823 20.5674 40.3016 20.5763 40.3765 20.6291C40.4515 20.6819 40.4674 20.7584 40.4674 20.8571V21.2509L40.3202 21.2501Z" fill="#939598"/>
<path d="M40.7058 20.3047H40.8918V21.2503H40.7058V20.3047Z" fill="#939598"/>
</g>
</g>
<defs>
<clipPath id="clip0_1_8">
<rect width="1920" height="5734" fill="white" transform="translate(-964 -5224)"/>
</clipPath>
<clipPath id="clip1_1_8">
<rect width="37" height="13.1531" fill="white" transform="translate(3.8938 9)"/>
</clipPath>
</defs>
</svg>
