<svg width="45" height="32" viewBox="0 0 45 32" fill="none" xmlns="http://www.w3.org/2000/svg">
<rect x="1.16078" y="1.54017" width="42.4833" height="29.6096" stroke="#444649" stroke-width="1.28737"/>
<path fill-rule="evenodd" clip-rule="evenodd" d="M14.357 21.312H11.7053L9.7169 13.5029C9.62252 13.1437 9.42213 12.8261 9.12735 12.6765C8.39172 12.3003 7.58109 12.001 6.69678 11.85V11.5494H10.9684C11.5579 11.5494 12.0001 12.001 12.0738 12.5255L13.1055 18.1584L15.7558 11.5494H18.3338L14.357 21.312ZM19.8078 21.312H17.3035L19.3656 11.5494H21.8699L19.8078 21.312ZM25.1096 14.2539C25.1833 13.7281 25.6255 13.4275 26.1413 13.4275C26.9519 13.352 27.835 13.5029 28.5719 13.8778L29.0141 11.7758C28.2771 11.4752 27.4665 11.3242 26.7309 11.3242C24.3003 11.3242 22.5317 12.6765 22.5317 14.5533C22.5317 15.981 23.7844 16.7307 24.6688 17.1823C25.6255 17.6326 25.9939 17.9333 25.9202 18.3836C25.9202 19.0591 25.1833 19.3597 24.4477 19.3597C23.5634 19.3597 22.679 19.1346 21.8697 18.7584L21.4276 20.8617C22.3119 21.2365 23.2686 21.3875 24.1529 21.3875C26.8783 21.4617 28.5719 20.1107 28.5719 18.0829C28.5719 15.5294 25.1096 15.3797 25.1096 14.2539ZM37.3362 21.312L35.3478 11.5494H33.212C32.7698 11.5494 32.3276 11.85 32.1803 12.3003L28.4982 21.312H31.0762L31.5907 19.8855H34.7582L35.053 21.312H37.3362ZM33.5806 14.1784L34.3162 17.8578H32.2541L33.5806 14.1784Z" fill="#71747A"/>
</svg>
