<svg width="80" height="81" viewBox="0 0 80 81" fill="none" xmlns="http://www.w3.org/2000/svg">
<rect width="80" height="80" transform="translate(0 0.250977)" fill="white"/>
<path d="M40.0001 0.817139C33.2078 8.61354 29.4614 18.6012 29.4508 28.9413C29.4754 30.8512 29.6271 32.7574 29.9057 34.6469H50.0843C50.3663 32.7576 50.5216 30.8515 50.5494 28.9413C50.5371 18.6012 46.7924 8.61354 40.0001 0.817139ZM0.000692682 16.5396C-0.0317658 22.8214 1.40919 29.0234 4.20909 34.6469H27.9534C26.9582 33.0549 25.8526 31.5346 24.6446 30.0972C18.3332 22.7545 9.58124 17.9398 0.000692682 16.5396ZM79.9995 16.5396C70.4192 17.9398 61.6673 22.7547 55.356 30.0972C54.1509 31.5348 53.048 33.0551 52.0554 34.6469H75.7847C78.5868 29.024 80.0304 22.8219 79.9995 16.5396ZM5.88748 37.6848C6.52188 38.728 7.20342 39.7412 7.93015 40.7221H72.0806C72.8047 39.7416 73.4841 38.7279 74.1162 37.6848H5.88748ZM10.41 43.76C11.3824 44.8278 12.4117 45.8414 13.4933 46.7979H66.5288C67.6122 45.8421 68.6433 44.8275 69.6174 43.76H10.41ZM17.3816 49.8358C22.4336 53.327 28.219 55.6128 34.2929 56.5176C34.2861 54.2781 34.0918 52.0431 33.7124 49.8358H17.3816ZM34.9525 49.8358C36.3821 52.4132 38.0735 54.836 40.0001 57.0662C41.9259 54.8359 43.6168 52.413 45.0458 49.8358H34.9525ZM46.272 49.8358C45.8979 52.0436 45.7092 54.2786 45.7077 56.5176C51.7812 55.6122 57.5662 53.3269 62.6178 49.8358H46.272Z" fill="#0B0C0C"/>
<path d="M26.7454 61.2354V66.9355C25.6054 66.1397 24.2278 65.6901 22.7438 65.6901C18.8734 65.6901 15.7454 68.8165 15.7454 72.6869C15.7454 76.5837 18.8734 79.685 22.7438 79.685C24.2278 79.685 25.6054 79.2356 26.7454 78.4403V79.3926H30.1126V61.2347L26.7454 61.2354ZM31.7563 61.2354V64.6026H35.1219V61.2354H31.7563ZM47.5016 61.2354V66.9355C46.3616 66.1397 44.9825 65.6901 43.4985 65.6901C39.6281 65.6901 36.5016 68.8165 36.5016 72.6869C36.5016 76.5837 39.6281 79.685 43.4985 79.685C44.9825 79.685 46.3616 79.2356 47.5016 78.4403V79.3926H50.8672V61.2347L47.5016 61.2354ZM6.99851 65.6901C3.12811 65.6901 0 68.8165 0 72.6869C0 76.5837 3.12811 79.685 6.99851 79.685C8.48251 79.685 9.86001 79.2356 11 78.4403V79.3926H14.3672V65.8473H11V66.9348C9.86001 66.139 8.48251 65.6901 6.99851 65.6901ZM59.2439 65.6901C55.3735 65.6901 52.2469 68.8165 52.2469 72.6869C52.2469 76.5837 55.3735 79.685 59.2439 79.685C60.7278 79.685 62.1069 79.2356 63.247 78.4403V79.3926H66.6126V65.8473H63.247V66.9348C62.1069 66.139 60.7278 65.6901 59.2439 65.6901ZM73.7703 65.6901C70.2448 65.6901 68.1501 67.6245 68.1501 70.1429C68.1501 73.2181 70.6434 73.7204 72.7906 74.118L74.5657 74.4371C75.8377 74.6755 76.3953 75.0457 76.3953 75.7883C76.3953 76.4509 75.7585 77.1136 74.2469 77.1136C72.0469 77.1136 71.3311 75.9747 71.3047 74.9931H67.8595C67.9602 77.7235 70.2985 79.659 74.1953 79.659C77.3761 79.659 80 78.2803 80 75.2322C80 73.1115 78.8069 71.866 76.05 71.3356L73.9032 70.9128C72.5248 70.6475 71.5704 70.381 71.5704 69.5595C71.5704 68.6585 72.4982 68.2608 73.6641 68.2608C75.3609 68.2608 76.0503 69.1101 76.1032 70.1169H79.4969C79.3111 67.4657 77.1895 65.6901 73.7703 65.6901ZM31.7563 65.848V79.3933H35.1219V65.848H31.7563ZM7.15632 68.8162C9.30432 68.8162 11.0266 70.5397 11.0266 72.6869C11.0266 74.834 9.30432 76.5569 7.15632 76.5569C5.00911 76.5569 3.28753 74.834 3.28753 72.6869C3.28753 70.5397 5.00911 68.8162 7.15632 68.8162ZM22.9031 68.8162C25.0495 68.8162 26.7719 70.5397 26.7719 72.6869C26.7719 74.834 25.0495 76.5569 22.9031 76.5569C20.7551 76.5569 19.0329 74.834 19.0329 72.6869C19.0329 70.5397 20.7551 68.8162 22.9031 68.8162ZM43.6579 68.8162C45.8051 68.8162 47.5282 70.5397 47.5282 72.6869C47.5282 74.834 45.8051 76.5569 43.6579 76.5569C41.5107 76.5569 39.7875 74.834 39.7875 72.6869C39.7875 70.5397 41.5107 68.8162 43.6579 68.8162ZM59.4032 68.8162C61.5496 68.8162 63.2735 70.5397 63.2735 72.6869C63.2735 74.834 61.5496 76.5569 59.4032 76.5569C57.2559 76.5569 55.5328 74.834 55.5328 72.6869C55.5328 70.5397 57.2559 68.8162 59.4032 68.8162Z" fill="#0B0C0C"/>
</svg>
