<svg width="82" height="81" viewBox="0 0 82 81" fill="none" xmlns="http://www.w3.org/2000/svg">
<rect width="80" height="80" transform="translate(0.25 0.250977)" fill="white"/>
<path d="M39.6164 32.0835C39.1919 32.1045 38.4857 32.2138 38.0717 32.3231C37.5946 32.4492 37.4264 32.5018 37.0502 32.6447C36.7119 32.775 36.632 32.8107 36.2222 33.0167C35.4298 33.4181 34.8393 33.8468 34.2046 34.4858C33.6161 35.0763 33.2062 35.6417 32.8385 36.3584C32.2794 37.4555 32.0083 38.624 32.0083 39.9418C32.0083 40.5597 32.0356 40.8455 32.1491 41.455C32.5295 43.4852 33.738 45.259 35.5097 46.3876C36.9052 47.2767 38.5382 47.7306 40.331 47.7285C41.2431 47.7264 42.0964 47.6087 42.9581 47.3607C43.1199 47.3145 43.1704 47.2977 43.4394 47.2031C44.7277 46.747 45.9572 45.9022 46.8063 44.8912C48.2291 43.1931 48.8155 41.0115 48.4771 38.6702C48.3363 37.695 47.9874 36.7304 47.462 35.8561C47.0732 35.2087 46.7117 34.7758 46.0371 34.1558C45.7281 33.87 45.5138 33.6997 45.2363 33.5148C44.0468 32.7224 42.8215 32.2874 41.2557 32.1024C41.0203 32.0751 40.0515 32.0646 39.6164 32.0835ZM40.8564 36.1923C41.9598 36.3373 42.8047 36.9489 43.2839 37.9514C43.4394 38.2772 43.4982 38.4474 43.5865 38.8384C43.6706 39.202 43.6832 39.3554 43.6832 39.9207C43.6832 40.3642 43.6748 40.5239 43.6454 40.7089C43.5277 41.4024 43.349 41.8837 43.0359 42.3482C42.8635 42.6025 42.4369 43.027 42.1952 43.1868C41.8841 43.3906 41.5037 43.5504 41.1401 43.6302C40.8585 43.6912 40.0767 43.7143 39.7005 43.6702C39.4336 43.6407 39.0384 43.5125 38.7232 43.3549C37.8888 42.9388 37.3003 42.1843 37.0439 41.2028C37.0124 41.0809 36.9788 40.9485 36.9683 40.9064C36.8926 40.6248 36.8611 39.7841 36.9052 39.3575C37.0418 38.0839 37.6618 37.0666 38.6097 36.5601C38.9481 36.3794 39.3012 36.2617 39.7173 36.1902C39.9296 36.1545 40.5748 36.1545 40.8564 36.1923Z" fill="#0B0C0C"/>
<path d="M74.0001 32.0835C73.4053 32.1235 72.6823 32.2475 72.2305 32.3841C70.5029 32.9095 69.4415 33.9183 69.0296 35.4294C68.9476 35.7321 68.9182 35.9317 68.8909 36.3752C68.8236 37.4681 68.9455 38.1952 69.3259 38.9645C69.7358 39.7988 70.3957 40.4399 71.3583 40.9401C71.5222 41.0262 71.7492 41.1334 71.8606 41.1796C72.0981 41.2784 72.6718 41.4739 72.9177 41.5411C73.1951 41.6147 74.1724 41.8627 74.6096 41.9699C75.8202 42.2662 76.2384 42.4133 76.4212 42.6046C76.5347 42.7223 76.5747 42.8505 76.5747 43.0943C76.5726 43.2834 76.5663 43.3297 76.5242 43.4159C76.3792 43.7101 76.0808 43.8614 75.5028 43.9392C75.1644 43.9833 74.0316 43.977 73.7269 43.9287C72.9135 43.7963 72.2452 43.5062 71.394 42.9156C70.9295 42.5899 70.7593 42.4932 70.5512 42.4344C69.9459 42.2599 69.3659 42.3566 68.8825 42.716C68.7522 42.8127 68.5252 43.0502 68.4348 43.1805C68.2141 43.5062 68.1364 43.7752 68.1343 44.2082C68.1343 44.6832 68.1931 44.887 68.4432 45.2822C68.584 45.507 68.8089 45.7256 69.1977 46.0156C70.3074 46.8458 71.2763 47.2641 72.7496 47.5499C73.0648 47.6108 73.6218 47.6802 74.0526 47.7117C74.3469 47.7327 75.3767 47.7327 75.6394 47.7117C75.7487 47.7033 75.8958 47.6907 75.9652 47.6844C78.2707 47.4868 79.8176 46.6293 80.5364 45.1434C80.9315 44.3301 81.1059 43.2729 81.0176 42.2536C80.9588 41.5748 80.7465 40.9548 80.3955 40.4314C79.8701 39.6475 79.0336 39.017 77.9492 38.5904C77.2472 38.315 76.8311 38.1973 75.4061 37.8716C74.2376 37.6047 73.8887 37.5059 73.6029 37.3567C73.2162 37.1549 73.0922 36.9468 73.1048 36.5265C73.109 36.3542 73.1489 36.2617 73.2771 36.1188C73.4326 35.9464 73.6953 35.835 74.0947 35.7699C75.2275 35.5912 76.4549 35.9527 77.5414 36.7892C78.1131 37.2264 78.38 37.3357 78.897 37.3357C79.4372 37.3357 79.8575 37.1591 80.2232 36.7766C80.3871 36.6022 80.467 36.4908 80.5679 36.2827C80.8579 35.6858 80.7865 34.9755 80.3745 34.3954C80.1665 34.1032 79.6095 33.6072 79.1282 33.2857C78.1362 32.6216 77.1127 32.2706 75.6814 32.1024C75.4545 32.0751 74.3006 32.0625 74.0001 32.0835Z" fill="#0B0C0C"/>
<path d="M8.12886 32.1256C7.40167 32.2201 6.89937 32.3315 6.35083 32.5165C4.48873 33.1407 2.97761 34.3449 2.05917 35.938C1.61361 36.7114 1.30256 37.5837 1.14704 38.5021C1.00833 39.3323 1.00412 40.36 1.13653 41.1818C1.2185 41.682 1.30256 42.0287 1.46019 42.4974C1.82378 43.5819 2.37863 44.494 3.17307 45.3095C4.04737 46.209 5.05829 46.8332 6.37815 47.2872C6.46012 47.3166 6.66188 47.3733 6.89306 47.4364C7.429 47.5814 8.0553 47.6802 8.65849 47.7117C10.3987 47.8063 11.8678 47.5457 13.112 46.9236C13.8707 46.5432 14.4907 46.0724 15.2158 45.3305C15.571 44.9669 15.6971 44.8051 15.8253 44.5487C16.1615 43.8719 16.1048 43.0291 15.676 42.3986C15.4953 42.1296 15.1821 41.8585 14.89 41.7135C14.5264 41.5348 14.3394 41.4886 13.9337 41.4886C13.6416 41.4886 13.587 41.4949 13.3999 41.5453C13.1603 41.6105 12.8997 41.7282 12.719 41.8501C12.6496 41.8984 12.4478 42.0729 12.2692 42.2368C11.5441 42.9114 11.1763 43.1657 10.6257 43.3759C10.2011 43.5399 9.99516 43.5756 9.4277 43.5861C8.63537 43.6008 8.2991 43.5399 7.76316 43.2855C6.95191 42.8967 6.4349 42.2893 6.13646 41.3709C5.97673 40.8833 5.90737 40.3894 5.91788 39.8051C5.93469 38.6639 6.24364 37.8148 6.87625 37.1549C7.44581 36.5643 8.17089 36.2638 9.09354 36.2344C9.71984 36.2154 10.22 36.3163 10.7497 36.5664C11.294 36.8249 11.7228 37.1801 12.162 37.735C12.3196 37.9325 12.555 38.1553 12.7232 38.2646C13.5933 38.8279 14.7093 38.7039 15.4406 37.962C15.8147 37.5837 15.9745 37.2789 16.0459 36.8123C16.1405 36.1755 16.0207 35.6543 15.6613 35.1499C15.4091 34.7968 14.6882 34.036 14.312 33.727C13.4756 33.0398 12.6055 32.5921 11.6114 32.3378C10.8232 32.1361 10.3546 32.0856 9.21543 32.0856C8.56391 32.0856 8.36425 32.094 8.12886 32.1256Z" fill="#0B0C0C"/>
<path d="M58.2164 32.1213C55.9361 32.4282 54.1538 33.3656 52.8318 34.9544C52.0101 35.9422 51.4426 37.2201 51.2304 38.5546C51.1526 39.0485 51.1442 39.162 51.1442 39.8472C51.1442 40.5491 51.1589 40.7425 51.2493 41.2826C51.5834 43.2687 52.6574 45.0257 54.2127 46.1354C55.3707 46.9614 56.5729 47.4343 58.0482 47.6445C59.1117 47.7958 60.3328 47.7558 61.411 47.5352C61.4971 47.5163 61.5917 47.4973 61.6211 47.4931C61.7157 47.4742 62.1802 47.3418 62.3483 47.2851C63.0524 47.0518 63.8279 46.6209 64.4689 46.1123C64.7085 45.9211 65.6059 45.0342 65.7362 44.8597C65.835 44.7252 65.9695 44.4625 66.0305 44.2817C66.1145 44.0316 66.1292 43.9287 66.1292 43.5987C66.1292 43.1763 66.0788 42.9619 65.8981 42.6172C65.4861 41.8333 64.6476 41.3961 63.7501 41.4949C63.2226 41.5559 62.983 41.682 62.3988 42.2116C61.7262 42.8232 61.4383 43.0396 61.0221 43.2456C60.5367 43.4873 59.9965 43.6029 59.3723 43.5966C58.3341 43.5882 57.5964 43.3024 56.9974 42.6824C56.5308 42.1969 56.2135 41.5369 56.0727 40.7614C55.997 40.3411 55.997 39.3049 56.0727 38.9645C56.142 38.6555 56.1819 38.5084 56.2303 38.376C56.2618 38.294 56.2912 38.21 56.2975 38.1868C56.3207 38.1112 56.5287 37.7224 56.6191 37.5858C56.72 37.4365 56.968 37.136 57.0436 37.075C57.071 37.0519 57.1445 36.9889 57.2076 36.9363C57.8213 36.413 58.7775 36.1461 59.6834 36.2428C60.1352 36.2932 60.5009 36.3983 60.9002 36.5959C61.4089 36.8481 61.743 37.1255 62.2096 37.6824C62.5312 38.0691 62.6972 38.2079 63.0293 38.376C63.6808 38.7039 64.3596 38.6975 65.0112 38.3592C65.6143 38.046 66.0221 37.4933 66.1419 36.8312C66.1734 36.6568 66.1734 36.2302 66.1419 36.0536C66.0872 35.7531 65.9506 35.4336 65.7678 35.173C65.5429 34.8578 65.0427 34.3071 64.6686 33.9624C63.5715 32.9536 62.3126 32.363 60.812 32.1571C60.4232 32.1045 60.358 32.1003 59.4143 32.0919C58.6157 32.0856 58.4644 32.0877 58.2164 32.1213Z" fill="#0B0C0C"/>
<path d="M20.5982 32.3252C19.7869 32.5018 19.1985 32.9746 18.8307 33.746C18.6415 34.1432 18.6562 33.5946 18.6478 40.0384L18.6394 45.7172L18.7277 45.9547C18.8328 46.2447 18.9105 46.4003 19.0408 46.5936C19.4276 47.159 20.0749 47.5667 20.7117 47.6445C20.9429 47.6739 21.2897 47.6697 21.5082 47.634C21.9328 47.5667 22.3846 47.3313 22.7356 46.9929C22.9752 46.766 23.095 46.5999 23.2547 46.2784C23.3661 46.0556 23.3977 45.9715 23.4229 45.816C23.4691 45.5407 23.4901 44.9501 23.4943 43.9161C23.4964 43.4159 23.5006 42.9976 23.5069 42.9892C23.5111 42.9829 23.5174 42.7202 23.5196 42.4091C23.5259 41.7702 23.5469 41.31 23.5805 41.1397C23.7192 40.4104 23.7781 40.1919 23.9441 39.7841C24.4401 38.5588 25.327 37.7623 26.5229 37.4681C26.7688 37.4092 27.2501 37.4155 27.6157 37.487C28.116 37.5837 28.2084 37.5942 28.593 37.5942C29.0113 37.5942 29.1584 37.571 29.4169 37.4639C29.8309 37.2936 30.2408 36.9658 30.5266 36.5769C30.6548 36.4046 30.8019 36.1083 30.8524 35.9212C31.0289 35.2781 30.9785 34.6875 30.7031 34.1348C30.4236 33.5778 30.0747 33.2479 29.4337 32.941C28.8831 32.6762 28.7128 32.6447 27.8869 32.6447C27.2795 32.6447 27.0861 32.6594 26.712 32.7329C26.4346 32.7897 26.0059 32.92 25.7768 33.0188C25.7431 33.0335 25.6423 33.0755 25.5561 33.1133C25.203 33.2647 24.707 33.5484 24.3686 33.7922C24.1606 33.9435 24.024 34.0549 23.7612 34.2861C23.6372 34.3975 23.5238 34.4921 23.5132 34.4963C23.4796 34.5089 23.4628 34.4647 23.4565 34.3533C23.4418 34.0381 23.1707 33.4496 22.8869 33.1218C22.6221 32.8149 22.1871 32.5249 21.7941 32.3988C21.4851 32.2979 20.8966 32.2622 20.5982 32.3252Z" fill="#0B0C0C"/>
</svg>
