<svg width="81" height="81" viewBox="0 0 81 81" fill="none" xmlns="http://www.w3.org/2000/svg">
<rect width="80" height="80" transform="translate(0.5 0.250977)" fill="white"/>
<path d="M43.9601 5.70365C43.7977 4.7886 43.8986 3.84225 44.2495 2.99011C44.6004 2.13796 45.1847 1.42027 45.9249 0.932191C46.6651 0.444116 47.5262 0.208717 48.394 0.257208C49.2618 0.3057 50.0954 0.63579 50.7842 1.20371C51.4731 1.77163 51.9845 2.55055 52.2509 3.43719C52.5172 4.32382 52.5258 5.27628 52.2755 6.16828C52.0253 7.06028 51.528 7.84967 50.8495 8.43178C50.1711 9.01389 49.3436 9.36121 48.4768 9.42771C48.3297 9.44001 48.1821 9.44276 48.0346 9.43594C47.9474 9.45051 47.8657 9.4911 47.799 9.55306C47.5566 9.95932 48.4171 9.88338 47.8323 11.6576C47.8266 11.7901 47.8033 11.921 47.7632 12.0464C47.7171 12.7281 47.4729 14.7457 47.4379 15.8208C47.5617 15.9764 47.5967 16.0523 47.583 16.4302C47.5276 16.9408 47.4183 18.1916 47.2416 18.9922C47.0922 19.6794 46.8301 19.8111 46.6193 19.9795C46.323 21.4023 46.2445 22.5818 45.483 24.3111C45.4147 25.6214 45.3285 25.9783 45.0724 26.6179C45.0434 28.5476 45.168 28.8349 43.9532 31.891C43.6391 33.3202 43.9379 34.3084 44.2682 35.7935C44.6097 37.3197 45.5488 37.9575 45.6862 39.5203C46.0157 43.2013 45.9329 45.7066 45.1962 48.5925L45.8399 50.2249C46.6372 50.6174 48.6177 51.6889 47.5199 53.3881C49.0659 54.2591 51.4015 55.1842 53.3248 56.9511C54.1 57.6428 54.9186 58.3968 55.6536 59.2825C57.0528 59.5158 56.9034 59.6348 57.9398 60.3174C60.9882 62.3212 65.8789 66.2951 68.7105 69.1087C69.1988 69.4143 69.3977 69.6348 69.7921 69.8563C69.8536 69.9825 69.8707 70.0118 69.857 70.0466C69.7213 70.4126 69.7264 70.4245 69.6009 70.7173C69.7537 70.9003 70.0388 71.0677 70.2087 71.226C70.3684 71.2791 70.3684 71.1977 70.6415 71.1254C70.9975 71.4822 71.438 71.7659 71.5959 71.7531C72.0783 71.6222 71.9963 71.7293 72.4035 71.2407C72.5503 71.0787 72.7962 71.2407 72.7962 71.2407C73.0584 70.9052 73.3691 70.617 73.7164 70.387C74.0665 70.1655 74.7349 70.1408 74.7349 70.1408C74.9585 70.1408 74.9167 70.3888 74.8971 70.4693C74.641 70.6093 74.1091 70.763 73.8086 71C73.1539 71.7256 72.6408 72.7047 72.6408 72.7047C73.9589 72.5116 74.769 72.8621 75.8677 72.7275C76.4653 72.69 76.9083 72.7275 77.5375 72.2435C77.8986 71.9712 78.2824 71.735 78.684 71.538C79.2098 71.2919 79.7084 71.4228 80.1719 71.7833C80.4989 72.1785 80.6961 72.1813 80.1992 72.7394C80.0191 72.9563 79.7587 73.1969 79.4309 73.5492C78.8487 74.1659 78.065 74.9867 77.2549 75.6665C76.4448 76.3464 75.5023 76.9704 74.921 77.2531C73.4535 78.3832 73.8001 78.0876 72.6459 79.2085C72.5 79.3476 72.1141 79.5974 71.9263 79.731C71.4713 80.0512 71.3287 79.784 71.0325 79.1975C70.9019 78.9751 70.782 78.7458 70.6731 78.5104C70.4281 77.9998 70.2463 77.4124 70.3188 77.4261C70.0457 77.3886 68.8147 75.8422 68.8121 75.511C68.5517 75.4469 67.442 74.2949 67.4018 74.0744L66.4184 73.2299C65.2933 73.4806 65.0355 72.7312 62.0647 70.4711C61.7232 70.4647 61.2016 70.2689 60.4513 69.6724C59.111 68.5213 55.8935 65.9163 55.348 65.6189C54.7624 65.2986 54.0675 64.9976 53.6339 64.6179C52.9902 64.4916 52.6385 64.4193 52.3175 64.3232C51.8417 64.1616 51.3531 64.0473 50.8577 63.982C49.503 63.799 48.0978 63.2005 46.7601 62.4832C46.1267 62.162 45.5752 61.9982 45.0306 61.7512C43.8081 61.1976 42.759 60.6989 41.9471 60.4985C41.6372 60.4656 40.1638 59.9916 39.3904 59.5085C39.1223 59.3603 38.9678 59.2185 38.7928 59.1754C38.3865 59.0757 38.1261 59.2468 37.9434 59.3136C36.9523 59.8626 36.0244 60.3448 35.1664 60.8398C34.3682 61.2973 33.6341 61.7722 32.8555 62.2526C32.153 62.6872 31.3411 63.0971 30.5071 63.5245C30.5071 63.5245 28.1288 64.8055 26.8295 65.2986C25.7026 66.285 23.3986 67.9906 21.9926 68.836C21.296 69.1911 19.9438 70.1097 19.3197 70.3147C18.9638 70.6221 17.6978 71.5957 16.7024 72.3917C15.9341 73.0075 15.3553 73.5263 15.3553 73.5263C14.9097 73.9546 14.9396 74.1577 14.0919 73.7725C13.8571 73.9793 13.6753 74.1083 13.5242 74.23C12.9121 74.7058 12.86 74.5914 12.6364 74.5786C12.2095 74.9748 12.1557 74.7698 11.7827 75.2255C11.5377 75.6318 11.7887 75.5348 11.2705 75.7324C11.1621 75.7772 11.11 75.9154 11.0263 75.9968C10.6106 76.3628 10.6089 77.3995 9.61436 77.4737C9.03814 77.9138 9.18753 78.4463 8.74533 78.4225C8.77264 78.88 7.96678 79.5471 7.82166 79.5443C6.55225 80.0137 6.46432 79.0136 4.94137 79.7602C4.74418 79.8572 4.45564 80.1263 4.0749 80.2013C3.40477 80.3367 2.59549 80.1949 2.10207 79.785C1.32523 79.1444 0.609852 77.9037 0.609852 77.9037C0.363995 77.2733 0.507412 76.878 1.27913 76.2878C1.60011 76.0682 1.65987 75.9044 2.19939 75.8651C2.46744 75.7562 2.39402 75.9227 2.87293 75.7388C3.15037 75.6318 3.15037 75.7077 3.70867 75.6565C3.83673 75.565 4.01685 75.5311 4.25844 75.4469C4.69979 75.2914 5.13089 75.1175 5.13089 75.1175C5.13089 75.1175 5.24357 74.9958 5.6687 75.0388C6.0281 74.8815 6.39774 74.6472 6.58725 74.5749C6.53859 73.9646 6.60005 73.993 6.86384 73.7514C7.19336 73.4477 7.25226 73.4971 7.49726 73.6855C7.60056 73.6215 7.65092 73.5995 7.63897 73.5025C7.59885 73.1841 7.34445 73.035 7.42129 72.3341C7.3086 72.0532 7.14214 71.7064 7.17799 71.4969C7.23177 71.2709 7.28384 71.162 7.41189 71.0906C7.53995 71.0192 7.59202 71.1171 7.668 71.205C7.79775 71.3669 7.90275 71.8455 7.90275 71.8455C7.94885 72.3872 8.10593 73.089 8.60533 72.6928C8.89984 72.3725 8.95704 71.5197 9.55802 71.7027L9.98486 72.1017C10.3485 71.7357 10.3656 71.7357 10.5824 71.5874C10.5824 71.5874 10.241 71.2215 10.5397 70.9314C10.7446 70.7365 10.9913 70.5965 11.4301 70.0759C12.6329 68.6503 13.251 68.0208 14.5528 66.8734C17.1489 64.5859 20.1017 62.9791 21.9798 62.1812C22.5919 61.3486 23.1869 60.795 24.5459 60.655C26.1602 57.7325 29.2522 55.122 29.9624 54.7075C30.5404 53.5857 30.7914 53.701 31.5469 53.4796C32.1444 52.9653 32.281 52.9653 32.5491 52.4273C32.8094 51.3183 31.9515 48.3546 34.1471 48.2046C34.4118 47.7821 34.7027 47.3792 35.0179 46.9986C34.7289 46.2347 34.5282 45.4358 34.4203 44.6196C34.4032 44.5418 33.5479 43.8958 33.7903 43.0522C33.4275 42.5892 32.748 41.5077 32.5354 41.0008C32.4392 40.9915 32.3438 40.9738 32.2503 40.9477C32.1393 40.9294 32.0019 40.9358 31.8465 40.9221C31.505 41.8682 31.1311 41.9386 30.5224 42.1482C29.4357 44.6306 29.0533 45.681 25.9784 47.7297C25.244 48.6192 24.6964 49.6673 24.3726 50.8032C24.1626 51.2863 24.2369 51.9634 24.3479 52.3267C24.1874 52.8638 24.2292 52.9178 24.2292 52.9178C24.2966 53.12 24.4708 53.389 24.6851 53.4466C25.0538 53.5509 25.4235 53.5381 25.4021 53.9746C25.3526 54.5236 24.6774 54.4321 24.3572 54.3744C23.1271 54.1658 23.5155 53.3057 22.7284 53.593C22.1258 54.0158 21.9004 55.2629 20.917 55.1009C20.7863 55.0094 20.8265 54.7349 20.917 54.5391C21.0553 54.2317 21.3003 53.9773 21.1543 53.862C20.5135 54.0816 19.8732 54.3052 19.2335 54.5327C18.6308 54.7093 17.9701 54.3872 18.5634 53.9618C18.9683 53.8119 19.3561 53.6133 19.7193 53.3698C19.7193 53.3698 19.9702 53.0038 19.4896 53.1868C18.9655 53.3881 18.192 53.5134 17.638 53.4475C17.638 53.4475 16.4873 53.2856 16.3404 53.1886C16.1936 53.0916 16.0553 52.711 16.4147 52.7137C16.8706 52.7137 18.0111 52.5737 18.8946 52.3212C19.3214 52.1427 20.1333 51.6285 20.5883 51.386C20.5883 51.386 21.0817 50.6156 21.3566 50.4637C21.8099 49.9037 22.1923 49.5734 22.5936 48.9997C22.9862 48.1323 23.3917 46.7589 24.691 44.6315C25.2886 43.6515 26.0381 42.5096 26.978 41.4885C26.978 41.4885 27.2205 39.8534 28.4438 38.6904C28.7631 37.9265 29.1243 37.1834 29.5254 36.4651C29.6824 36.1805 29.8318 35.9326 29.9812 35.6617C30.3603 35.0212 30.7581 33.8363 32.2349 33.6487C32.2349 33.6487 32.8666 33.1482 33.1091 32.7932C33.4881 32.4464 33.4019 31.9075 33.7066 31.5268C33.2363 31.0355 32.0326 30.1104 31.9139 28.8239C31.8504 28.2171 31.9168 27.6028 32.1083 27.0277C32.2997 26.4526 32.611 25.9319 33.0186 25.5052C33.8723 24.5902 34.7712 24.1327 35.8639 24.2032C37.2297 24.42 37.4858 24.9041 37.9204 25.3844C38.3369 25.8419 38.4923 25.5464 38.6682 26.0798C39.8129 26.4056 39.7498 26.2628 39.7395 27.165C39.9154 27.4185 40.2108 27.6545 40.2065 28.1816C40.5915 27.3261 40.6675 27.1687 41.6953 26.2271C41.9386 25.4622 42.1033 24.7101 42.3168 23.9451C42.5174 23.2378 42.7658 22.5095 42.9587 21.9614C42.7547 20.4151 43.1747 20.1588 43.7356 18.8037C43.6365 18.6207 43.6579 18.564 43.6997 18.2547C43.9174 17.3589 44.2589 16.1731 44.4612 15.3999C44.4824 15.3113 44.5288 15.2319 44.594 15.1727C44.6591 15.1136 44.7398 15.0775 44.8248 15.0696C45.0809 14.0915 45.4659 12.2706 45.5308 11.8991C45.7946 10.8762 45.6247 10.5477 45.4216 9.97122C45.3567 9.78273 45.3874 9.51372 45.2747 9.30418C44.9554 8.7076 44.6114 7.93168 44.3775 7.38268C44.2264 7.02949 43.9874 5.69999 43.9874 5.69999C43.7817 5.02197 43.9601 5.69999 43.9601 5.69999" fill="#0B0C0C"/>
</svg>
