<svg width="84" height="80" viewBox="0 0 84 80" fill="none" xmlns="http://www.w3.org/2000/svg">
<path d="M8.68828 45.8583C7.09333 45.8583 6.32671 44.63 6.72706 43.2092C7.55359 40.2643 12.8647 35.9004 16.484 35.9004C19.1233 35.9004 18.9224 38.266 17.3751 40.2837L16.5199 41.232C13.4523 44.2473 10.6086 45.8583 8.68828 45.8583ZM21.6244 26C17.0053 26.0018 11.9187 28.8324 8.72415 31.5131L8.97634 31.8793C13.9348 28.3976 20.8151 26.1337 22.7117 29.5295C23.7133 31.3209 22.0132 34.9388 19.619 37.7981C20.1916 36.5354 19.8135 34.1108 16.475 34.1108C10.9254 34.1108 0 41.4749 0 49.0115C0 52.0304 2.09073 54 5.53461 54C14.7527 54 27.2541 38.8643 27.2541 31.2623C27.2541 28.5769 25.7118 26 21.6244 26Z" fill="#121416"/>
<path d="M33.4922 45.8584C32.9555 45.8584 32.5089 45.6708 32.2294 45.3283C31.9382 44.9693 31.8513 44.4605 31.9894 43.9351C32.2962 42.7953 33.5227 41.8998 34.784 41.8998H37.7508L36.6907 45.8584H33.4922ZM42.0187 33.9913C41.1703 32.9463 39.7967 32.4788 38.8137 32.4788H33.4226L32.5075 35.8976H37.5919L38.079 35.949C38.0841 35.949 38.5457 36.0029 38.8033 36.35C39.0114 36.6404 39.0419 37.0716 38.8923 37.6372L38.6519 38.537H35.4484C32.6911 38.537 28.8473 40.5185 27.9902 43.7188C27.5641 45.3147 27.9375 46.6971 28.7655 47.713C29.587 48.7213 31.1374 49.2779 32.8124 49.2779H35.7792H35.7774H39.5481L42.6185 37.7989C43.1297 35.8868 42.5758 34.6722 42.0187 33.9913Z" fill="#121416"/>
<path d="M79.0519 32.4788C77.5933 32.4788 76.238 32.9111 75.1359 33.7293C74.0231 34.5547 73.4093 35.5465 73.0434 36.9146C72.2495 39.8795 74.5756 41.3105 76.4446 42.3249C77.7852 43.0522 78.9447 43.6796 78.6935 44.6089C78.5163 45.2759 78.2254 45.8594 76.5763 45.8594H71.5421L70.6288 49.2779H76.201C77.6952 49.2779 79.0742 48.9664 80.1852 48.1118C81.2973 47.2544 81.9258 46.06 82.3143 44.6021C82.6874 43.2146 82.4359 41.8894 81.5444 40.9005C80.8015 40.07 79.7328 39.4932 78.7911 38.9837C77.5843 38.3333 76.4464 37.7195 76.6451 36.9757C76.7668 36.5254 77.2127 35.8976 78.1874 35.8976H83.0845L84 32.4788H79.0519Z" fill="#121416"/>
<path d="M49.8363 32.4788C48.378 32.4788 47.023 32.9111 45.9206 33.7293C44.8078 34.5547 44.194 35.5465 43.8245 36.9146C43.0324 39.8795 45.3603 41.3105 47.2289 42.3249C48.5703 43.0522 49.7268 43.6796 49.4782 44.6089C49.2992 45.2759 49.0097 45.8594 47.3606 45.8594H42.3271L41.412 49.2779H46.9839C48.4799 49.2779 49.8585 48.9664 50.9695 48.1118C52.0834 47.2544 52.7105 46.06 53.099 44.6021C53.4706 43.2146 53.2188 41.8894 52.3309 40.9005C51.588 40.07 50.5175 39.4932 49.574 38.9837C48.369 38.3333 47.2325 37.7195 47.4316 36.9757C47.5511 36.5254 47.9988 35.8976 48.9717 35.8976H53.866L54.7829 32.4788H49.8363Z" fill="#121416"/>
<path d="M57.4394 32.4788L53.0689 49.2779H56.7614L61.1283 32.4788H57.4394Z" fill="#121416"/>
<path d="M70.9516 32.4788C64.4509 32.5021 61.049 36.8387 59.9692 40.8785C58.6899 45.6686 61.2355 49.2783 65.8909 49.2783H69.0104L69.9238 45.8598H66.8053C65.0629 45.8598 62.6669 44.4864 63.6326 40.8785C64.3996 38.0109 67.1909 35.898 70.2528 35.898H72.2337L73.1489 32.4791L70.9516 32.4788Z" fill="#121416"/>
</svg>
