<svg width="81" height="81" viewBox="0 0 81 81" fill="none" xmlns="http://www.w3.org/2000/svg">
<rect width="80" height="80" transform="translate(0.5 0.250977)" fill="white"/>
<path d="M2.98883 55.9395L20.7662 55.5617L18.5218 59.6949L0.5 59.8283L2.98883 55.9395Z" fill="#0B0C0C"/>
<path d="M5.25545 51.3173L8.12205 46.8286L25.8994 46.3175L23.1439 51.4507L5.25545 51.3173Z" fill="#0B0C0C"/>
<path d="M15.633 33.4289L18.0107 28.5845L39.0103 28.0734L39.6547 34.3177L15.633 33.4289Z" fill="#0B0C0C"/>
<path d="M22.7662 20.6736L21.144 24.5624L38.0325 24.8068L37.6547 21.0514L22.7662 20.6736Z" fill="#0B0C0C"/>
<path d="M79.1649 23.4291C77.6983 20.8291 72.0317 21.2513 65.543 21.2291C57.8765 21.1847 49.6767 21.518 48.7878 21.318L46.9212 25.829L58.1876 27.0734L57.6765 27.4512L45.8101 28.3179L42.1657 34.5844L52.8988 36.3621L13.4997 37.6288L10.6553 42.4731L49.7211 43.562L26.055 46.3619L28.4327 51.984L45.8101 52.7617L28.566 54.2284L30.1882 59.7394L58.9431 59.4949C66.1208 59.5172 81.2315 47.7841 69.8318 40.1176C82.9204 34.0733 81.0537 27.7845 79.1649 23.4291ZM49.2767 50.6951L53.521 43.0731C65.6541 42.4953 59.6542 53.9839 49.2767 50.6951ZM58.5654 35.2955L62.0097 28.5623C71.8317 28.0734 66.9652 38.2287 58.5654 35.2955Z" fill="#0B0C0C"/>
</svg>
