<svg width="81" height="81" viewBox="0 0 81 81" fill="none" xmlns="http://www.w3.org/2000/svg">
<rect width="80" height="80" transform="translate(0.5 0.250977)" fill="white"/>
<path d="M9.32441 54.6838C6.94142 54.5877 4.9885 53.9266 3.46566 52.7004C3.03052 52.32 2.62374 51.9075 2.24863 51.4664C1.66978 50.7516 1.22291 49.9368 0.929476 49.0613C0.0664933 46.4415 0.510751 43.0051 2.20182 39.2341C3.64864 36.0055 5.87928 32.8028 9.77632 28.3686C10.3431 27.715 12.0512 25.8066 12.0623 25.8066C12.0734 25.8066 11.9729 25.9696 11.8563 26.1688C10.8436 27.8866 9.97803 29.9105 9.50568 31.6628C8.74823 34.4731 8.84015 36.886 9.77632 38.7564C10.4206 40.0447 11.5253 41.1614 12.7678 41.7746C14.9432 42.8551 18.1296 42.9439 22.0164 42.0333C22.2845 41.9712 35.5484 38.402 51.5008 34.0997C67.4532 29.7975 80.5 26.2947 80.5 26.2973C80.5 26.2999 43.4471 42.3687 24.2096 50.7015C21.1628 52.0209 20.3483 52.3546 18.9159 52.8642C15.2546 54.1689 11.9755 54.7907 9.32441 54.6838Z" fill="#0B0C0C"/>
</svg>
